<?xml version="1.0" encoding="utf-8"?>
<!-- Generator: Adobe Illustrator 24.0.1, SVG Export Plug-In . SVG Version: 6.00 Build 0)  -->
<svg version="1.1" id="图层_1" xmlns="http://www.w3.org/2000/svg" xmlns:xlink="http://www.w3.org/1999/xlink" x="0px" y="0px"
	 viewBox="0 0 73.43 73.43" style="enable-background:new 0 0 73.43 73.43;" xml:space="preserve">
<g>
	<path d="M69.16,49.97H42.23v9.36c0,5.47-1.22,8.21-5.04,9.79c-3.82,1.51-9.07,1.73-15.7,1.73c-0.5-3.02-2.38-7.71-3.96-10.44
		c4.61,0.22,10.44,0.22,12.02,0.22c1.58,0,2.09-0.36,2.09-1.51v-9.14H4.28V40.1h27.36v-5.98H9.82V24.4h54.15v9.72H42.23v5.98h26.93
		V49.97z M19.33,17.28H4.57V7.84h14.76V2.59H29.7v5.26h13.61V2.59h10.44v5.26H68.8v9.43H53.75v5.4H43.31v-5.4H29.7v5.4H19.33V17.28z
		"/>
</g>
<g>
</g>
<g>
</g>
<g>
</g>
<g>
</g>
<g>
</g>
<g>
</g>
</svg>
